<svg width="16" height="16" viewBox="0 0 16 16" fill="none" xmlns="http://www.w3.org/2000/svg">
<path fill-rule="evenodd" clip-rule="evenodd" d="M5.53854 0C5.70175 0 5.85827 0.064834 5.97367 0.18024C6.08908 0.295645 6.15391 0.452168 6.15391 0.615376V1.85105C7.61963 1.87314 9.08308 1.97476 10.5378 2.15546C10.618 2.16548 10.6955 2.1912 10.7657 2.23116C10.836 2.27112 10.8977 2.32452 10.9474 2.38833C10.997 2.45214 11.0336 2.5251 11.055 2.60305C11.0765 2.681 11.0824 2.76241 11.0723 2.84263C11.0623 2.92285 11.0366 3.00031 10.9966 3.07059C10.9567 3.14087 10.9033 3.20259 10.8395 3.25222C10.7757 3.30186 10.7027 3.33845 10.6247 3.35989C10.5468 3.38133 10.4654 3.38721 10.3852 3.37719C9.84365 3.30908 9.29967 3.25329 8.7524 3.20816C8.27401 5.07537 7.44754 6.83551 6.31637 8.3962C6.57646 8.71127 6.84969 9.01403 7.13522 9.30449C7.19189 9.36214 7.23666 9.43038 7.26696 9.50533C7.29726 9.58028 7.3125 9.66046 7.31182 9.7413C7.31113 9.82214 7.29453 9.90205 7.26296 9.97647C7.23139 10.0509 7.18548 10.1184 7.12783 10.175C7.07019 10.2317 7.00194 10.2765 6.927 10.3068C6.85205 10.3371 6.77187 10.3523 6.69103 10.3516C6.6102 10.351 6.53029 10.3344 6.45586 10.3028C6.38144 10.2712 6.31397 10.2253 6.25729 10.1677C6.00882 9.91476 5.7691 9.65341 5.53854 9.38408C4.24331 10.8977 2.66745 12.1465 0.897853 13.0616C0.826039 13.0986 0.747627 13.1212 0.667095 13.128C0.586563 13.1347 0.505488 13.1256 0.428498 13.101C0.351509 13.0764 0.280113 13.0369 0.218387 12.9847C0.156661 12.9326 0.105813 12.8688 0.0687478 12.797C0.0316824 12.7251 0.00912487 12.6467 0.00236302 12.5662C-0.00439884 12.4857 0.00476751 12.4046 0.0293386 12.3276C0.0539097 12.2506 0.0934044 12.1792 0.145568 12.1175C0.197731 12.0558 0.261542 12.0049 0.333356 11.9678C2.03473 11.0878 3.54068 9.87292 4.76072 8.3962C4.04489 7.40789 3.44939 6.33779 2.98682 5.20855C2.92866 5.05825 2.93179 4.89113 2.99552 4.74311C3.05925 4.59509 3.17851 4.47798 3.32766 4.41694C3.47681 4.35591 3.64395 4.35582 3.79317 4.41669C3.94239 4.47757 4.06177 4.59455 4.12566 4.7425C4.50296 5.66341 4.97655 6.54185 5.53854 7.36318C6.42368 6.06953 7.08672 4.63723 7.50033 3.12529C5.22784 3.01258 2.94986 3.09686 0.69191 3.37719C0.529901 3.39742 0.366489 3.35247 0.237621 3.25222C0.108754 3.15198 0.0249873 3.00464 0.00474978 2.84263C-0.0154877 2.68062 0.0294613 2.5172 0.129709 2.38833C0.229956 2.25946 0.37729 2.1757 0.539299 2.15546C1.99397 1.9744 3.45744 1.87278 4.92318 1.85105V0.615376C4.92318 0.452168 4.98801 0.295645 5.10341 0.18024C5.21882 0.064834 5.37534 0 5.53854 0ZM11.0768 5.53839C11.194 5.53834 11.3088 5.57175 11.4076 5.63469C11.5064 5.69763 11.5853 5.78747 11.6348 5.89366L15.9424 15.1243C15.9765 15.1976 15.9959 15.2769 15.9994 15.3576C16.0029 15.4384 15.9905 15.5191 15.9629 15.595C15.9352 15.671 15.8928 15.7408 15.8382 15.8003C15.7836 15.8599 15.7178 15.9082 15.6445 15.9424C15.4965 16.0113 15.3272 16.0187 15.1738 15.9629C15.0204 15.907 14.8955 15.7925 14.8265 15.6445L13.8435 13.5383H8.31016L7.32721 15.6445C7.25823 15.7925 7.13329 15.907 6.97988 15.9629C6.82647 16.0187 6.65716 16.0113 6.50918 15.9424C6.36121 15.8734 6.2467 15.7484 6.19084 15.595C6.13499 15.4416 6.14236 15.2723 6.21134 15.1243L10.5189 5.89366C10.5684 5.78747 10.6473 5.69763 10.7461 5.63469C10.8449 5.57175 10.9597 5.53834 11.0768 5.53839ZM8.8845 12.3075H13.2692L11.0768 7.60933L8.8845 12.3075Z" fill="#10B981"/>
</svg>
